<svg xmlns="http://www.w3.org/2000/svg" xmlns:svg="http://www.w3.org/2000/svg" id="svg16" width="1729.651" height="923.945" version="1.1"><path id="path453" style="fill:#cd8206;stroke-width:8;stroke-linecap:square;stop-color:#000" d="m 369.72103,0 2,113 -158,-84 c 0,0 -150.1356,361.44229 -190,585 -34.61723,194.1318 -25.8903303,222.4595 -8.24219,248.25 24.34842,35.5821 72.63441,62.216 115.74642,61.6868 40.90266,-0.5021 130.03311,-63.9023 171.70507,-119.9102 54.11014,-72.7248 28.60688,-120.9415 17.51726,-211.7258 L 269.72103,600 l 13.39258,80.7695 -25.52344,5.8614 -10.74609,-50.0782 -37.12305,8.4473 7,54 -26.19141,5.7871 -4.80859,-35.7871 -37.43555,7.5996 2.43555,36.4004 -99,18 C 45.27655,644.1986 197.39904,184.07837 232.1722,106.99609 L 372.72103,177 378.2865,376.34289 727.72103,379 647.26791,102.31836 Z m 53.68555,72.55273 185.26172,71.90821 53.8125,188.14453 -230.42774,-2.17774 z M 284.04134,730.877 C 285.87683,791.8033 146.2072,877.5767 136.51595,877.8125 126.43271,878.0579 52.07263,832.629 50.12142,828.3574 47.3105,822.2035 49.18001,779.916 49.18001,779.916 Z"/><text xml:space="preserve" style="font-size:232.611px;font-family:'ITC Giovanni Std Book';-inkscape-font-specification:'ITC Giovanni Std Book, ';font-variant-ligatures:no-contextual;fill:#6d624e;fill-opacity:1;stroke:#6d624e;stroke-width:8;stroke-linecap:square;stroke-dasharray:none;stroke-opacity:1;stop-color:#000" id="text1098" x="846.877" y="323.886" transform="scale(0.87748433,1.1396215)"><tspan id="tspan1096" x="846.877" y="323.886" style="font-style:normal;font-variant:normal;font-weight:400;font-stretch:normal;font-family:'BPG Algeti GPL&amp;GNU';-inkscape-font-specification:'BPG Algeti GPL&amp;GNU';fill:#6d624e;fill-opacity:1;stroke:#6d624e;stroke-width:8;stroke-linecap:square;stroke-dasharray:none;stroke-opacity:1">EXCAVATION</tspan></text><text xml:space="preserve" style="font-size:232.611px;font-family:'ITC Giovanni Std Book';-inkscape-font-specification:'ITC Giovanni Std Book, ';font-variant-ligatures:no-contextual;fill:#6d624e;fill-opacity:1;stroke:#6d624e;stroke-width:8;stroke-linecap:square;stroke-dasharray:none;stroke-opacity:1;stop-color:#000" id="text1704" x="464.045" y="552.864" transform="scale(0.87748433,1.1396215)"><tspan id="tspan1702" x="464.045" y="552.864" style="font-style:normal;font-variant:normal;font-weight:400;font-stretch:normal;font-family:'BPG Algeti GPL&amp;GNU';-inkscape-font-specification:'BPG Algeti GPL&amp;GNU';fill:#6d624e;fill-opacity:1;stroke:#6d624e;stroke-width:8;stroke-linecap:square;stroke-dasharray:none;stroke-opacity:1">GILLES CHALIFOUX</tspan></text><text xml:space="preserve" style="font-size:137.271px;font-family:'ITC Giovanni Std Book';-inkscape-font-specification:'ITC Giovanni Std Book, ';font-variant-ligatures:no-contextual;fill:#6d624e;fill-opacity:1;stroke:#6d624e;stroke-width:7.99999;stroke-linecap:square;stroke-dasharray:none;stroke-opacity:1;stop-color:#000" id="text1818" x="756.78" y="758.784" transform="scale(0.93055517,1.0746273)"><tspan id="tspan1816" x="756.78" y="758.784" style="font-style:normal;font-variant:normal;font-weight:400;font-stretch:normal;font-family:'BPG Sans Medium GPL&amp;GNU';-inkscape-font-specification:'BPG Sans Medium GPL&amp;GNU';fill:#6d624e;fill-opacity:1;stroke:none;stroke-width:7.99999;stroke-linecap:square;stroke-dasharray:none;stroke-opacity:1">(450) 433-3855</tspan></text></svg>