<svg xmlns="http://www.w3.org/2000/svg" xmlns:svg="http://www.w3.org/2000/svg" id="svg2" width="340.705" height="55.403" version="1.1" viewBox="0 0 340.705 55.403"><defs id="defs6"><clipPath id="clipPath118" clipPathUnits="userSpaceOnUse"><path id="path116" d="M 0,0 H 612 V 792 H 0 Z"/></clipPath><clipPath id="clipPath150" clipPathUnits="userSpaceOnUse"><path id="path148" d="M 0,0 H 612 V 792 H 0 Z"/></clipPath><clipPath id="clipPath166" clipPathUnits="userSpaceOnUse"><path id="path164" d="m 19.44,140.342 h 83.52 V 300.96 H 19.44 Z"/></clipPath><clipPath id="clipPath430" clipPathUnits="userSpaceOnUse"><path id="path428" d="M 24.354,164.011 H 102.96 V 289.182 H 24.354 Z"/></clipPath><clipPath id="clipPath446" clipPathUnits="userSpaceOnUse"><path id="path444" d="m 19.44,140.342 h 83.52 V 300.96 H 19.44 Z"/></clipPath><clipPath id="clipPath934" clipPathUnits="userSpaceOnUse"><path id="path932" d="M 24.354,164.011 H 102.96 V 289.182 H 24.354 Z"/></clipPath><clipPath id="clipPath950" clipPathUnits="userSpaceOnUse"><path id="path948" d="m 19.44,140.342 h 83.52 V 300.96 H 19.44 Z"/></clipPath><clipPath id="clipPath1168" clipPathUnits="userSpaceOnUse"><path id="path1166" d="M 24.354,164.011 H 102.96 V 289.182 H 24.354 Z"/></clipPath><clipPath id="clipPath1184" clipPathUnits="userSpaceOnUse"><path id="path1182" d="m 19.44,140.342 h 83.52 V 300.96 H 19.44 Z"/></clipPath><clipPath id="clipPath1284" clipPathUnits="userSpaceOnUse"><path id="path1282" d="m 198.541,242.901 c -0.258,0 -0.463,0.088 -0.541,0.256 -0.139,0.297 0.169,0.734 0.688,0.975 0.225,0.105 0.452,0.156 0.65,0.156 0.257,0 0.462,-0.087 0.541,-0.256 0.138,-0.297 -0.17,-0.734 -0.69,-0.975 -0.224,-0.105 -0.451,-0.156 -0.648,-0.156"/></clipPath><clipPath id="clipPath1620" clipPathUnits="userSpaceOnUse"><path id="path1618" d="M 150.48,158.4 H 219.6 V 284.458 H 150.48 Z"/></clipPath><clipPath id="clipPath1884" clipPathUnits="userSpaceOnUse"><path id="path1882" d="M 150.48,167.668 H 219.6 V 284.457 H 150.48 Z"/></clipPath><clipPath id="clipPath1900" clipPathUnits="userSpaceOnUse"><path id="path1898" d="M 150.48,158.4 H 219.6 V 284.458 H 150.48 Z"/></clipPath><clipPath id="clipPath2388" clipPathUnits="userSpaceOnUse"><path id="path2386" d="M 150.48,167.668 H 219.6 V 284.457 H 150.48 Z"/></clipPath><clipPath id="clipPath2404" clipPathUnits="userSpaceOnUse"><path id="path2402" d="M 150.48,158.4 H 219.6 V 284.458 H 150.48 Z"/></clipPath><clipPath id="clipPath2622" clipPathUnits="userSpaceOnUse"><path id="path2620" d="M 150.48,167.668 H 219.6 V 284.457 H 150.48 Z"/></clipPath><clipPath id="clipPath2638" clipPathUnits="userSpaceOnUse"><path id="path2636" d="M 150.48,158.4 H 219.6 V 284.458 H 150.48 Z"/></clipPath><clipPath id="clipPath2738" clipPathUnits="userSpaceOnUse"><path id="path2736" d="m 23.346,246.559 c -0.257,0 -0.462,0.087 -0.541,0.255 -0.138,0.297 0.17,0.734 0.689,0.976 0.225,0.105 0.452,0.156 0.649,0.156 0.257,0 0.463,-0.088 0.541,-0.256 0.138,-0.297 -0.17,-0.734 -0.689,-0.976 -0.225,-0.104 -0.452,-0.155 -0.649,-0.155"/></clipPath><clipPath id="clipPath3074" clipPathUnits="userSpaceOnUse"><path id="path3072" d="M 306,101.005 H 473.962 V 427.68 H 306 Z"/></clipPath><clipPath id="clipPath3338" clipPathUnits="userSpaceOnUse"><path id="path3336" d="M 306,137.156 H 473.962 V 377.485 H 306 Z"/></clipPath><clipPath id="clipPath3354" clipPathUnits="userSpaceOnUse"><path id="path3352" d="M 306,101.005 H 473.962 V 427.68 H 306 Z"/></clipPath><clipPath id="clipPath3842" clipPathUnits="userSpaceOnUse"><path id="path3840" d="M 306,137.156 H 473.962 V 377.485 H 306 Z"/></clipPath><clipPath id="clipPath3858" clipPathUnits="userSpaceOnUse"><path id="path3856" d="M 306,101.005 H 473.962 V 427.68 H 306 Z"/></clipPath><clipPath id="clipPath4076" clipPathUnits="userSpaceOnUse"><path id="path4074" d="M 306,137.156 H 473.962 V 377.485 H 306 Z"/></clipPath><clipPath id="clipPath4092" clipPathUnits="userSpaceOnUse"><path id="path4090" d="M 306,101.005 H 473.962 V 427.68 H 306 Z"/></clipPath><clipPath id="clipPath4192" clipPathUnits="userSpaceOnUse"><path id="path4190" d="m 363.551,290.991 c -0.997,-0.464 -1.589,-1.303 -1.323,-1.873 v 0 c 0.151,-0.323 0.545,-0.491 1.038,-0.491 v 0 c 0.379,0 0.815,0.098 1.246,0.299 v 0 c 0.997,0.464 1.588,1.302 1.324,1.873 v 0 c -0.152,0.323 -0.546,0.491 -1.039,0.491 v 0 c -0.379,0 -0.815,-0.098 -1.246,-0.299"/></clipPath><clipPath id="clipPath4202" clipPathUnits="userSpaceOnUse"><path id="path4200" d="M 306,101.005 H 473.962 V 427.68 H 306 Z"/></clipPath><clipPath id="clipPath4536" clipPathUnits="userSpaceOnUse"><path id="path4534" d="M 427.356,0 H 612 V 299.52 H 427.356 Z"/></clipPath><clipPath id="clipPath4800" clipPathUnits="userSpaceOnUse"><path id="path4798" d="M 427.356,30.903 H 596.371 V 299.52 H 427.356 Z"/></clipPath><clipPath id="clipPath4816" clipPathUnits="userSpaceOnUse"><path id="path4814" d="M 427.356,0 H 612 V 299.52 H 427.356 Z"/></clipPath><clipPath id="clipPath5304" clipPathUnits="userSpaceOnUse"><path id="path5302" d="M 427.356,30.903 H 596.371 V 299.52 H 427.356 Z"/></clipPath><clipPath id="clipPath5320" clipPathUnits="userSpaceOnUse"><path id="path5318" d="M 427.356,0 H 612 V 299.52 H 427.356 Z"/></clipPath><clipPath id="clipPath5538" clipPathUnits="userSpaceOnUse"><path id="path5536" d="M 427.356,30.903 H 596.371 V 299.52 H 427.356 Z"/></clipPath><clipPath id="clipPath5554" clipPathUnits="userSpaceOnUse"><path id="path5552" d="M 427.356,0 H 612 V 299.52 H 427.356 Z"/></clipPath><clipPath id="clipPath5654" clipPathUnits="userSpaceOnUse"><path id="path5652" d="m -7.468,212.353 c -0.591,0 -1.063,0.201 -1.244,0.587 -0.318,0.684 0.391,1.689 1.584,2.244 0.517,0.241 1.04,0.358 1.493,0.358 0.592,0 1.064,-0.201 1.245,-0.588 0.317,-0.683 -0.391,-1.688 -1.586,-2.244 -0.516,-0.24 -1.038,-0.357 -1.492,-0.357"/></clipPath><clipPath id="clipPath5994" clipPathUnits="userSpaceOnUse"><path id="path5992" d="m 88.56,57.542 h 74.88 V 198 H 88.56 Z"/></clipPath><clipPath id="clipPath6258" clipPathUnits="userSpaceOnUse"><path id="path6256" d="m 88.56,78.949 h 74.88 V 198 H 88.56 Z"/></clipPath><clipPath id="clipPath6274" clipPathUnits="userSpaceOnUse"><path id="path6272" d="m 88.56,57.542 h 74.88 V 198 H 88.56 Z"/></clipPath><clipPath id="clipPath6762" clipPathUnits="userSpaceOnUse"><path id="path6760" d="m 88.56,78.949 h 74.88 V 198 H 88.56 Z"/></clipPath><clipPath id="clipPath6778" clipPathUnits="userSpaceOnUse"><path id="path6776" d="m 88.56,57.542 h 74.88 V 198 H 88.56 Z"/></clipPath><clipPath id="clipPath6996" clipPathUnits="userSpaceOnUse"><path id="path6994" d="m 88.56,78.949 h 74.88 V 198 H 88.56 Z"/></clipPath><clipPath id="clipPath7012" clipPathUnits="userSpaceOnUse"><path id="path7010" d="m 88.56,57.542 h 74.88 V 198 H 88.56 Z"/></clipPath><clipPath id="clipPath7112" clipPathUnits="userSpaceOnUse"><path id="path7110" d="m 187.448,157.84 c -0.257,0 -0.462,0.087 -0.541,0.255 -0.138,0.297 0.17,0.734 0.689,0.976 0.224,0.105 0.452,0.156 0.649,0.156 0.257,0 0.463,-0.088 0.541,-0.256 0.138,-0.297 -0.17,-0.734 -0.689,-0.976 -0.225,-0.104 -0.452,-0.155 -0.649,-0.155"/></clipPath><clipPath id="clipPath7448" clipPathUnits="userSpaceOnUse"><path id="path7446" d="m 218.16,69.782 h 74.88 V 210.24 h -74.88 z"/></clipPath><clipPath id="clipPath7712" clipPathUnits="userSpaceOnUse"><path id="path7710" d="m 218.16,95.149 h 74.88 V 210.24 h -74.88 z"/></clipPath><clipPath id="clipPath7728" clipPathUnits="userSpaceOnUse"><path id="path7726" d="m 218.16,69.782 h 74.88 V 210.24 h -74.88 z"/></clipPath><clipPath id="clipPath8216" clipPathUnits="userSpaceOnUse"><path id="path8214" d="m 218.16,95.149 h 74.88 V 210.24 h -74.88 z"/></clipPath><clipPath id="clipPath8232" clipPathUnits="userSpaceOnUse"><path id="path8230" d="m 218.16,69.782 h 74.88 V 210.24 h -74.88 z"/></clipPath><clipPath id="clipPath8450" clipPathUnits="userSpaceOnUse"><path id="path8448" d="m 218.16,95.149 h 74.88 V 210.24 h -74.88 z"/></clipPath><clipPath id="clipPath8466" clipPathUnits="userSpaceOnUse"><path id="path8464" d="m 218.16,69.782 h 74.88 V 210.24 h -74.88 z"/></clipPath><clipPath id="clipPath8566" clipPathUnits="userSpaceOnUse"><path id="path8564" d="m 167.706,174.04 c -0.257,0 -0.462,0.087 -0.541,0.255 -0.138,0.297 0.17,0.734 0.689,0.976 0.225,0.105 0.452,0.156 0.649,0.156 0.257,0 0.463,-0.088 0.541,-0.256 0.138,-0.297 -0.17,-0.734 -0.689,-0.976 -0.225,-0.104 -0.452,-0.155 -0.649,-0.155"/></clipPath></defs><g id="g10" transform="matrix(1.3333333,0,0,-1.3333333,-40.578132,564.31519)"><text id="text130" transform="matrix(1,0,0,-1,84.6046,388.5819)" xml:space="preserve" style="font-variant:normal;font-weight:300;font-stretch:normal;font-size:22.3656px;font-family:Bliss;-inkscape-font-specification:Bliss-Light;writing-mode:lr-tb;fill:#656263;fill-opacity:1;fill-rule:nonzero;stroke:none"><tspan id="tspan128" x="0 16.595 27.644 35.293 40.437 58.329 63.474 71.816 79.465 89.776 95.367 106.058 113.707 124.017 132.136 143.006 154.3 164.611 171.611 181.922 190.264" y="0">Optimiste Ste-Thérèse</tspan></text><text id="text134" transform="matrix(1,0,0,-1,86.6379,407.8017)" xml:space="preserve" style="font-variant:normal;font-weight:300;font-stretch:normal;font-size:17.0792px;font-family:Bliss;-inkscape-font-specification:Bliss-Light;writing-mode:lr-tb;fill:#656263;fill-opacity:1;fill-rule:nonzero;stroke:none"><tspan id="tspan132" x="0 6.985 15.696 24.321 32.843 40.7 46.541 50.469 59.179" y="0">Fondation</tspan></text><g id="g136" transform="translate(79.5449,419.4286)" style="stroke-width:1.05;stroke-dasharray:none"><path d="M 0,0 V -36.619" style="fill:none;stroke:#656263;stroke-width:1.05;stroke-linecap:butt;stroke-linejoin:miter;stroke-miterlimit:10;stroke-dasharray:none;stroke-opacity:1" id="path138"/></g><g id="g140" transform="translate(59.8156,381.6844)"><path d="m 0,0 h -17.211 l -12.171,12.17 v 17.212 l 12.171,12.17 H 0 L 12.17,29.382 V 12.17 Z M -15.684,3.687 H -1.527 L 8.484,13.697 V 27.854 L -1.527,37.865 H -15.684 L -25.695,27.854 V 13.697 Z" style="fill:#24488a;fill-opacity:1;fill-rule:nonzero;stroke:none" id="path142"/></g><g id="g144"><g id="g146" clip-path="url(#clipPath150)"><g id="g152" transform="translate(39.2195,403.2952)"><path d="m 0,0 c 0,4.167 1.154,7.652 3.461,10.456 2.308,2.804 5.146,4.205 8.516,4.205 3.388,0 6.235,-1.407 8.543,-4.222 C 22.827,7.624 23.981,4.144 23.981,0 c 0,-4.588 -1.172,-8.195 -3.516,-10.821 -2.344,-2.626 -5.174,-3.939 -8.488,-3.939 -3.315,0 -6.14,1.335 -8.475,4.005 C 1.167,-8.084 0,-4.499 0,0 m 4.565,-0.166 c 0,-4.832 0.651,-8.217 1.953,-10.157 1.302,-1.939 3.125,-2.908 5.472,-2.908 2.402,0 4.24,0.969 5.514,2.908 1.275,1.94 1.912,5.325 1.912,10.157 0,4.787 -0.633,8.2 -1.898,10.239 -1.265,2.039 -3.108,3.059 -5.528,3.059 -2.401,0 -4.239,-1.014 -5.514,-3.042 C 5.202,8.062 4.565,4.643 4.565,-0.166" style="fill:#24488a;fill-opacity:1;fill-rule:nonzero;stroke:none" id="path154"/></g><g id="g156" transform="translate(45.6173,410.1741)"><path d="M 0,0 V 2.23 H 11.108 V 0 H 10.783 C 9.74,0 9.06,-0.251 8.745,-0.753 8.43,-1.255 8.273,-2.116 8.273,-3.335 v -16.111 c 0,-1.245 0.163,-2.113 0.488,-2.602 0.325,-0.489 0.999,-0.733 2.022,-0.733 h 0.325 v -2.23 H 0 v 2.23 c 1.116,0 1.856,0.221 2.223,0.663 0.367,0.442 0.55,1.332 0.55,2.672 v 16.111 c 0,1.299 -0.173,2.18 -0.519,2.642 C 1.908,-0.231 1.157,0 0,0" style="fill:#24488a;fill-opacity:1;fill-rule:nonzero;stroke:none" id="path158"/></g></g></g></g></svg>